<svg width="18" height="17" viewBox="0 0 18 17" fill="none" xmlns="http://www.w3.org/2000/svg">
<path d="M10.9691 15.0523H7.03076V10.8377C7.03076 10.4481 7.34951 10.1294 7.7391 10.1294H10.2608C10.6503 10.1294 10.9691 10.4481 10.9691 10.8377V15.0523V15.0523Z" stroke="#B9BECF" stroke-width="1.5" stroke-linecap="round" stroke-linejoin="round"/>
<path d="M15.5519 8.06837V12.8213C15.5519 14.0538 14.6028 15.0525 13.4269 15.0525H4.57275C3.39692 15.0525 2.44775 14.0538 2.44775 12.8213V8.06837C2.44775 7.40253 2.724 6.7792 3.21275 6.3542L7.63984 2.46545C8.42609 1.77128 9.57359 1.77128 10.3598 2.46545L14.7869 6.3542C15.2757 6.7792 15.5519 7.40253 15.5519 8.06837Z" stroke="#B9BECF" stroke-width="1.5" stroke-linecap="round" stroke-linejoin="round"/>
</svg>
