<svg width="18" height="17" viewBox="0 0 18 17" fill="none" xmlns="http://www.w3.org/2000/svg">
<path d="M14.0931 12.4884C12.8606 11.3834 11.0331 10.6892 9.00014 10.6892C6.96723 10.6892 5.13973 11.3905 3.90723 12.4884" stroke="#B9BECF" stroke-width="1.5" stroke-linecap="round" stroke-linejoin="round"/>
<path d="M9.0001 8.50071C10.0055 8.50071 10.8205 7.68567 10.8205 6.68029C10.8205 5.6749 10.0055 4.85986 9.0001 4.85986C7.99472 4.85986 7.17969 5.6749 7.17969 6.68029C7.17969 7.68567 7.99472 8.50071 9.0001 8.50071Z" stroke="#B9BECF" stroke-width="1.5" stroke-linecap="round" stroke-linejoin="round"/>
<path d="M8.99984 15.052C12.6185 15.052 15.5519 12.1186 15.5519 8.49996C15.5519 4.88134 12.6185 1.94788 8.99984 1.94788C5.38122 1.94788 2.44775 4.88134 2.44775 8.49996C2.44775 12.1186 5.38122 15.052 8.99984 15.052Z" stroke="#B9BECF" stroke-width="1.5" stroke-linecap="round" stroke-linejoin="round"/>
</svg>
